<svg width="70" height="70" viewBox="0 0 70 70" fill="none" xmlns="http://www.w3.org/2000/svg">
<rect width="70" height="70" fill="white"/>
<path d="M42.6833 38.6262C42.6833 40.028 43.0817 40.587 44.1233 40.587C46.445 40.587 47.9233 37.6249 47.9233 32.6988C47.9233 25.1694 42.4433 21.5649 35.6017 21.5649C28.5633 21.5649 22.1617 26.2908 22.1617 35.2219C22.1617 43.7526 27.7617 48.3984 36.3617 48.3984C39.2817 48.3984 41.2417 48.078 44.24 47.0768L44.8833 49.7585C41.9233 50.7213 38.76 51 36.3217 51C25.0417 51 19 44.7922 19 35.2203C19 25.5682 26.0017 19 35.6417 19C45.6817 19 51 25.0075 51 32.3767C51 38.6245 49.0417 43.3905 42.8817 43.3905C40.08 43.3905 38.2417 42.2691 38.0017 39.7843C37.2817 42.5478 35.3617 43.3905 32.76 43.3905C29.28 43.3905 26.36 40.7055 26.36 35.3004C26.36 29.8536 28.9217 26.4894 33.5217 26.4894C35.9617 26.4894 37.4817 27.4506 38.1583 28.9725L39.32 26.8498H42.68V38.6262H42.6833ZM37.765 33.3396C37.765 31.1385 36.1233 30.2157 34.7633 30.2157C33.2833 30.2157 31.645 31.4155 31.645 34.9416C31.645 37.7451 32.885 39.3071 34.7633 39.3071C36.0833 39.3071 37.765 38.466 37.765 36.1431V33.3396Z" fill="#2186FC"/>
</svg>
