<svg width="70" height="70" viewBox="0 0 70 70" fill="none" xmlns="http://www.w3.org/2000/svg">
<rect width="70" height="70" fill="white"/>
<path d="M50.6784 26.4044L46.8784 23.1511C46.6202 22.9669 46.3394 22.825 46.0448 22.7298C45.7514 22.6243 45.4459 22.5656 45.1376 22.5556H34.2L35.4816 31.4444H45.1376C45.4 31.4444 45.728 31.3787 46.0432 31.2702C46.3584 31.1618 46.6624 31.0124 46.8768 30.8507L50.6768 27.5938C50.8928 27.432 51 27.2169 51 27C51 26.7831 50.8928 26.568 50.6784 26.4044ZM32.6 19H31C30.7878 19 30.5843 19.0937 30.4343 19.2603C30.2843 19.427 30.2 19.6531 30.2 19.8889V26.1111H24.8624C24.5968 26.1111 24.2704 26.1769 23.9552 26.2871C23.6384 26.3938 23.336 26.5413 23.1216 26.7067L19.3216 29.96C19.1056 30.1218 19 30.3387 19 30.5556C19 30.7707 19.1056 30.9858 19.3216 31.1511L23.1216 34.408C23.336 34.5698 23.6384 34.7191 23.9552 34.8258C24.2704 34.9342 24.5968 35 24.8624 35H30.2V50.1111C30.2 50.3469 30.2843 50.573 30.4343 50.7397C30.5843 50.9064 30.7878 51 31 51H32.6C32.8122 51 33.0157 50.9064 33.1657 50.7397C33.3157 50.573 33.4 50.3469 33.4 50.1111V19.8889C33.4 19.6531 33.3157 19.427 33.1657 19.2603C33.0157 19.0937 32.8122 19 32.6 19Z" fill="#2186FC"/>
</svg>
