<svg width="37" height="38" viewBox="0 0 37 38" fill="none" xmlns="http://www.w3.org/2000/svg">
<rect width="37" height="38" fill="#1E1E1E"/>
<g id="Section 1">
<rect width="17953" height="8650" transform="translate(-5202 -7627)" fill="white"/>
<g id="home page">
<g clip-path="url(#clip0_0_1)">
<rect x="-1246" y="-7259" width="1440" height="7582" fill="white"/>
<g id="Frame 1000003382">
<rect id="Rectangle 40" x="-1246" y="-221" width="1440" height="544" fill="#2186FC"/>
<g id="footer">
<g id="Group 70">
<path id="Vector" fill-rule="evenodd" clip-rule="evenodd" d="M0.401367 18.8826C0.401367 27.9513 6.9878 35.4924 15.602 37.0215V23.8472H11.0418V18.7808H15.602V14.7268C15.602 10.1666 18.5403 7.63417 22.6961 7.63417C24.0125 7.63417 25.4322 7.83634 26.7486 8.03851V12.7005H24.4184C22.1884 12.7005 21.6822 13.8147 21.6822 15.2345V18.7808H26.5464L25.7363 23.8472H21.6822V37.0215C30.2964 35.4924 36.8829 27.9529 36.8829 18.8826C36.8829 8.79398 28.6745 0.540039 18.6421 0.540039C8.60971 0.540039 0.401367 8.79398 0.401367 18.8826Z" fill="white"/>
</g>
</g>
</g>
</g>
<rect x="-1245.5" y="-7258.5" width="1439" height="7581" stroke="black"/>
</g>
</g>
<defs>
<clipPath id="clip0_0_1">
<rect x="-1246" y="-7259" width="1440" height="7582" fill="white"/>
</clipPath>
</defs>
</svg>
