<svg width="70" height="70" viewBox="0 0 70 70" fill="none" xmlns="http://www.w3.org/2000/svg">
<rect width="70" height="70" fill="white"/>
<path d="M40.3347 41.7422L43.0902 38.9856C43.4613 38.6189 43.9309 38.3679 44.4419 38.263C44.9529 38.1582 45.4833 38.204 45.9687 38.3949L49.327 39.7362C49.8176 39.9355 50.2383 40.2755 50.536 40.7135C50.8337 41.1515 50.9952 41.6679 51 42.1975V48.3507C50.9971 48.711 50.9214 49.067 50.7774 49.3973C50.6334 49.7275 50.4241 50.0252 50.1621 50.2724C49.9 50.5196 49.5907 50.7112 49.2527 50.8357C48.9147 50.9601 48.555 51.0148 48.1953 50.9966C24.6627 49.5321 19.9144 29.5958 19.0164 21.9659C18.9747 21.5912 19.0128 21.2119 19.1281 20.853C19.2435 20.4941 19.4335 20.1637 19.6857 19.8836C19.9378 19.6034 20.2464 19.3798 20.5912 19.2276C20.9359 19.0753 21.3089 18.9977 21.6858 19.0001H27.6274C28.1576 19.0016 28.6752 19.1618 29.1136 19.4601C29.552 19.7584 29.8913 20.181 30.0876 20.6737L31.4285 24.0333C31.6256 24.5171 31.6759 25.0482 31.5731 25.5603C31.4703 26.0725 31.2189 26.543 30.8503 26.913L28.0948 29.6697C28.0948 29.6697 29.6817 40.4131 40.3347 41.7422Z" fill="#2186FC"/>
</svg>
