<svg width="40" height="40" viewBox="0 0 40 40" fill="none" xmlns="http://www.w3.org/2000/svg">
<path d="M19.945 0.868164C9.15239 0.868164 0.401367 9.61919 0.401367 20.4118C0.401367 31.2045 9.15239 39.9555 19.945 39.9555C30.7377 39.9555 39.4887 31.2045 39.4887 20.4118C39.4887 9.61919 30.7377 0.868164 19.945 0.868164ZM29.3373 15.6001C29.3504 15.8051 29.3504 16.0189 29.3504 16.2283C29.3504 22.6323 24.4732 30.0092 15.5608 30.0092C12.8125 30.0092 10.2648 29.2108 8.1185 27.8367C8.51112 27.8803 8.88628 27.8977 9.28763 27.8977C11.5561 27.8977 13.6413 27.13 15.3034 25.83C13.1745 25.7863 11.386 24.3904 10.7752 22.4709C11.5212 22.58 12.193 22.58 12.9608 22.3836C11.8646 22.1609 10.8794 21.5656 10.1724 20.6988C9.46543 19.832 9.08035 18.7472 9.08259 17.6286V17.5675C9.72387 17.9296 10.4786 18.1521 11.2682 18.1826C10.6044 17.7403 10.06 17.1409 9.68335 16.4378C9.30667 15.7346 9.10931 14.9494 9.10877 14.1517C9.10877 13.2487 9.34434 12.4242 9.76749 11.7088C10.9842 13.2066 12.5024 14.4316 14.2236 15.3042C15.9447 16.1767 17.8302 16.6774 19.7574 16.7736C19.0725 13.4799 21.533 10.8145 24.4907 10.8145C25.8867 10.8145 27.143 11.3991 28.0286 12.3413C29.1236 12.1363 30.1706 11.7262 31.1041 11.1766C30.742 12.2977 29.983 13.2444 28.9753 13.842C29.9524 13.7373 30.8947 13.4668 31.7672 13.0873C31.1085 14.0558 30.284 14.9152 29.3373 15.6001Z" fill="white"/>
</svg>
